<?xml version="1.0" encoding="UTF-8"?>
<svg id="Layer_2" data-name="Layer 2" xmlns="http://www.w3.org/2000/svg" xmlns:xlink="http://www.w3.org/1999/xlink" viewBox="0 0 500 499.66">
  <defs>
    <style>
      .cls-1 {
        fill: #1e8fe2;
      }

      .cls-1, .cls-2, .cls-3, .cls-4, .cls-5, .cls-6 {
        stroke-width: 0px;
      }

      .cls-2 {
        fill: url(#New_Pattern_Swatch_2);
      }

      .cls-3 {
        fill: #2650a5;
      }

      .cls-4 {
        fill: #3bc3e2;
      }

      .cls-5 {
        fill: none;
      }

      .cls-6 {
        fill: #f3f7ff;
      }
    </style>
    <pattern id="New_Pattern_Swatch_2" data-name="New Pattern Swatch 2" x="0" y="0" width="56.4" height="56.39" patternTransform="translate(12724.74 12954.29) scale(2.54)" patternUnits="userSpaceOnUse" viewBox="0 0 56.4 56.39">
      <g>
        <rect class="cls-5" x="0" y="0" width="56.4" height="56.39"/>
        <g>
          <rect class="cls-1" x="42.3" y="28.19" width="28.2" height="56.4"/>
          <g>
            <g>
              <path class="cls-6" d="m66.37,32.33c-2.55-2.55-6.08-4.13-9.97-4.13s-7.41,1.58-9.96,4.13h-.01c-2.55,2.55-4.13,6.07-4.13,9.96h0c0,7.79,6.31,14.1,14.1,14.1s14.1-6.31,14.1-14.09h0c0-3.9-1.58-7.42-4.13-9.97Zm-1.86,9.97c0,4.47-3.63,8.1-8.11,8.1s-8.11-3.63-8.11-8.1h0c0-2.24.91-4.27,2.37-5.74h.01c1.47-1.46,3.49-2.37,5.73-2.37s4.27.91,5.73,2.37c1.47,1.47,2.38,3.49,2.38,5.73h0Z"/>
              <path class="cls-4" d="m70.5,42.29h-5.99c0-2.24-.91-4.26-2.38-5.73-1.46-1.46-3.49-2.37-5.73-2.37v-5.99c3.89,0,7.42,1.58,9.97,4.13,2.55,2.55,4.13,6.07,4.13,9.96Z"/>
            </g>
            <polygon class="cls-3" points="56.4 42.29 42.3 42.29 42.3 28.19 49.35 35.24 56.4 42.29"/>
          </g>
        </g>
        <g>
          <rect class="cls-1" x="14.1" y="56.39" width="28.2" height="56.4"/>
          <rect class="cls-6" x="28.2" y="56.39" width="14.1" height="14.1"/>
          <polygon class="cls-3" points="28.2 70.49 14.1 70.49 14.1 56.39 21.15 63.44 28.2 70.49"/>
        </g>
        <g>
          <rect class="cls-1" x="-14.1" y="28.19" width="28.2" height="56.4"/>
          <rect class="cls-6" x="0" y="28.19" width="14.1" height="14.1"/>
          <g>
            <g>
              <path class="cls-6" d="m9.97,32.33C7.42,29.78,3.89,28.2,0,28.2s-7.41,1.58-9.96,4.13h0c-2.55,2.55-4.13,6.07-4.13,9.96h0C-14.1,50.08-7.79,56.39,0,56.39s14.1-6.31,14.1-14.09h0c0-3.9-1.58-7.42-4.13-9.97Zm-1.86,9.97c0,4.47-3.63,8.1-8.11,8.1s-8.11-3.63-8.11-8.1h0c0-2.24.91-4.27,2.37-5.74h.01c1.47-1.46,3.49-2.37,5.73-2.37s4.27.91,5.73,2.37c1.47,1.47,2.38,3.49,2.38,5.73h0Z"/>
              <path class="cls-4" d="m14.1,42.29h-5.99c0-2.24-.91-4.26-2.38-5.73-1.46-1.46-3.49-2.37-5.73-2.37v-5.99c3.89,0,7.42,1.58,9.97,4.13,2.55,2.55,4.13,6.07,4.13,9.96Z"/>
            </g>
            <polygon class="cls-3" points="0 42.29 -14.1 42.29 -14.1 28.19 -7.05 35.24 0 42.29"/>
          </g>
          <rect class="cls-1" x="0" y="42.29" width="14.1" height="14.1"/>
        </g>
        <g>
          <rect class="cls-1" x="42.3" y="-28.21" width="28.2" height="56.39"/>
          <path class="cls-6" d="m66.37,4.14C63.82,1.59,60.29.01,56.4.01s-7.41,1.58-9.96,4.13h-.01c-2.55,2.55-4.13,6.07-4.13,9.96h0c0,7.79,6.31,14.1,14.1,14.1s14.1-6.31,14.1-14.09h0c0-3.9-1.58-7.42-4.13-9.97Zm-1.86,9.97c0,4.47-3.63,8.1-8.11,8.1s-8.11-3.63-8.11-8.1h0c0-2.24.91-4.27,2.37-5.74h.01c1.47-1.46,3.49-2.37,5.73-2.37s4.27.91,5.73,2.37c1.47,1.47,2.38,3.49,2.38,5.73h0Z"/>
          <rect class="cls-4" x="42.3" y="0" width="14.1" height="14.1"/>
          <rect class="cls-4" x="42.3" y="14.11" width="14.1" height="14.1"/>
          <polygon class="cls-4" points="70.5 0 70.5 14.1 56.4 14.1 63.45 7.05 70.5 0"/>
          <polygon class="cls-3" points="56.4 0 56.4 14.1 42.3 14.1 49.35 7.05 56.4 0"/>
        </g>
        <g>
          <rect class="cls-1" x="14.1" y="0" width="28.2" height="56.39"/>
          <rect class="cls-6" x="28.2" y="0" width="14.1" height="14.1"/>
          <rect class="cls-3" x="28.2" y="42.3" width="14.1" height="14.1"/>
          <path class="cls-6" d="m38.17,32.34c-2.55-2.55-6.08-4.13-9.97-4.13s-7.41,1.58-9.96,4.13h-.01c-2.55,2.55-4.13,6.07-4.13,9.96h0c0,7.79,6.31,14.1,14.1,14.1s14.1-6.31,14.1-14.09h0c0-3.9-1.58-7.42-4.13-9.97Zm-1.86,9.97c0,4.47-3.63,8.1-8.11,8.1s-8.11-3.63-8.11-8.1h0c0-2.24.91-4.27,2.37-5.74h0c1.47-1.46,3.49-2.37,5.73-2.37s4.27.91,5.73,2.37c1.47,1.47,2.38,3.49,2.38,5.73h0Z"/>
          <rect class="cls-4" x="14.1" y="28.2" width="14.1" height="14.1"/>
          <rect class="cls-6" x="28.2" y="28.2" width="14.1" height="14.1"/>
          <g>
            <g>
              <path class="cls-6" d="m38.17,4.13C35.62,1.58,32.09,0,28.2,0s-7.41,1.58-9.96,4.13h-.01c-2.55,2.55-4.13,6.07-4.13,9.96h0c0,7.79,6.31,14.1,14.1,14.1s14.1-6.31,14.1-14.09h0c0-3.9-1.58-7.42-4.13-9.97Zm-1.86,9.97c0,4.47-3.63,8.1-8.11,8.1s-8.11-3.63-8.11-8.1h0c0-2.24.91-4.27,2.37-5.74h0c1.47-1.46,3.49-2.37,5.73-2.37s4.27.91,5.73,2.37c1.47,1.47,2.38,3.49,2.38,5.73h0Z"/>
              <path class="cls-4" d="m42.3,14.09h-5.99c0-2.24-.91-4.26-2.38-5.73-1.46-1.46-3.49-2.37-5.73-2.37V0c3.89,0,7.42,1.58,9.97,4.13,2.55,2.55,4.13,6.07,4.13,9.96Z"/>
            </g>
            <polygon class="cls-3" points="28.2 14.09 14.1 14.09 14.1 0 21.15 7.04 28.2 14.09"/>
          </g>
          <rect class="cls-1" x="28.2" y="14.09" width="14.1" height="14.1"/>
          <rect class="cls-4" x="14.1" y="42.3" width="14.1" height="14.1"/>
          <polygon class="cls-4" points="42.3 28.2 42.3 42.3 28.2 42.3 35.25 35.25 42.3 28.2"/>
          <polygon class="cls-3" points="28.2 28.2 28.2 42.3 14.1 42.3 21.15 35.25 28.2 28.2"/>
        </g>
        <g>
          <rect class="cls-1" x="-14.1" y="-28.21" width="28.2" height="56.39"/>
          <rect class="cls-3" x="0" y="14.11" width="14.1" height="14.1"/>
          <path class="cls-6" d="m9.97,4.14C7.42,1.59,3.89.01,0,.01s-7.41,1.58-9.96,4.13h0c-2.55,2.55-4.13,6.07-4.13,9.96h0C-14.1,21.89-7.79,28.2,0,28.2s14.1-6.31,14.1-14.09h0c0-3.9-1.58-7.42-4.13-9.97Zm-1.86,9.97C8.11,18.58,4.48,22.21,0,22.21s-8.11-3.63-8.11-8.1h0c0-2.24.91-4.27,2.37-5.74h.01C-4.26,6.91-2.24,6,0,6s4.27.91,5.73,2.37c1.47,1.47,2.38,3.49,2.38,5.73h0Z"/>
          <rect class="cls-4" x="-14.1" y="0" width="14.1" height="14.1"/>
          <rect class="cls-6" x="0" y="0" width="14.1" height="14.1"/>
          <rect class="cls-4" x="-14.1" y="14.11" width="14.1" height="14.1"/>
          <polygon class="cls-4" points="14.1 0 14.1 14.1 0 14.1 7.05 7.05 14.1 0"/>
          <polygon class="cls-3" points="0 0 0 14.1 -14.1 14.1 -7.05 7.05 0 0"/>
        </g>
        <g>
          <rect class="cls-3" x="28.2" y="-14.09" width="14.1" height="14.1"/>
          <path class="cls-6" d="m38.17-24.06c-2.55-2.55-6.08-4.13-9.97-4.13s-7.41,1.58-9.96,4.13h-.01c-2.55,2.55-4.13,6.07-4.13,9.96h0C14.1-6.31,20.41,0,28.2,0s14.1-6.31,14.1-14.09h0c0-3.9-1.58-7.42-4.13-9.97Zm-1.86,9.97c0,4.47-3.63,8.1-8.11,8.1s-8.11-3.63-8.11-8.1h0c0-2.24.91-4.27,2.37-5.74h0c1.47-1.46,3.49-2.37,5.73-2.37s4.27.91,5.73,2.37c1.47,1.47,2.38,3.49,2.38,5.73h0Z"/>
          <rect class="cls-4" x="14.1" y="-14.09" width="14.1" height="14.1"/>
        </g>
      </g>
    </pattern>
  </defs>
  <g id="PATTERN">
    <polygon class="cls-2" points="500 499.66 0 499.61 0 0 500 0 500 499.66"/>
  </g>
</svg>